<?xml version="1.0" encoding="utf-8"?>
<!-- Generator: Adobe Illustrator 25.2.3, SVG Export Plug-In . SVG Version: 6.00 Build 0)  -->
<svg version="1.1" xmlns="http://www.w3.org/2000/svg" xmlns:xlink="http://www.w3.org/1999/xlink" x="0px" y="0px"
	 viewBox="0 0 750 400" style="enable-background:new 0 0 750 400;" xml:space="preserve">
<style type="text/css">
	.st0{display:none;}
	.st1{fill:none;stroke:#000000;stroke-width:2;stroke-miterlimit:10;}
	.st2{fill:none;}
</style>
<g id="Layer_1">
	<polyline class="st1" points="53.39,273 62.42,266.99 67.59,265.07 61.69,262.68 66.68,260.15 60.92,257.28 63.24,254.05 
		65.53,249.67 68.48,246.17 64.64,240.92 67.47,234.91 63.42,229.72 64.54,225.49 69.48,224.34 66.68,220.81 65.69,216.9 
		72.36,214.85 63.41,209.63 67,204.23 67,200.23 65.62,196.16 64.26,190.26 67.79,184.24 69.82,178.19 63.6,175.39 67.01,169.38 
		70.58,162.52 70.74,159.26 70.54,153.57 64.54,153.28 67,149.35 68.48,145.71 63.8,143 65.49,138.7 70.54,137.4 75.52,135.41 
		66.68,133.77 68.33,129.32 62.46,126.26 64.23,122.62 66.68,119.76 73.4,117.69 65.04,115.3 61.35,109.96 62.22,103.12 
		61.77,100.17 65.8,95.99 52.6,90.79 56.34,87.69 52.6,80.57 50.51,76 	"/>
</g>
<g id="Layer_2">
	<path d="M667.29,279.92c-0.9,0.03-2.02,0.06-3.29,0.08c-7.46,0.13-12.96-0.23-13.61-0.27c-6.52-0.37-167.65-4.64-548.53,2.62
		C95.9,282.47,84.1,282.69,69,283c-4.97-0.25-9.06-0.15-12,0c-6.68,0.34-9.71,1.08-12-1c-1.63-1.48-2.41-3.94-2-6
		c0.87-4.43,7.04-6.17,10-7c5.11-1.44,9.76-0.84,13,0c454.63-4.88,602.46-5.5,606.32-4.27c0.14,0.05,6.46,0.33,13.42,3.82
		c0,0,0,0,0,0c6.13,2.78,8.94,5.67,12.26,4.46c2.3-0.85,3.61-3.22,5.25-6.21c1.91-3.48,2.57-6.55,2.74-7.35
		c4.59-22.08,6.89-33.12,7.01-34.45c0,0,4.47-47.77-2-110c0,0-1.35-12.98-6.37-28c-0.35-1.05-0.83-2.11-0.83-2.11
		c-0.82-1.79-1.87-3.39-3.13-4.95c-2.05-2.53-4.1-3.11-7.02-1.68c-2.4,1.17-4.72,2.56-7.21,3.47c0,0,0,0,0,0
		c0,0.59-6.93,1.7-7.49,1.77c-4.41,0.51-163.68,0.16-608.72-1.86C64.82,81.43,59.41,81.21,54,81c-0.22,0.04-5.54,0.99-9-3
		c-1.79-2.06-2.92-5.25-2-8c1.39-4.17,7.4-7.05,14-5c18.33-0.01,36.66-0.01,55,0c183.09,0.11,366.18,1.29,549.27,3.54
		c6.81-1.59,10.58-0.41,12.78,1.01c1.13,0.73,1.85,1.53,3.51,2c2.8,0.79,5.67-0.08,8.48-1.36c9.31-4.24,17.1-0.4,22.23,5.8
		c4.98,6.02,8.41,12.82,10.1,20.4c1.31,5.86,2.4,11.78,3.19,17.73c1.43,10.81,2.6,21.65,3.79,32.49c0.24,2.19,0.07,4.43,0.07,6.64
		c-0.01,15.82,0.23,31.65-0.16,47.46c-0.2,8.08-1.18,16.2-2.45,24.19c-1.78,11.13-3.87,22.23-6.41,33.21
		c-1.18,5.07-3.73,9.83-5.67,14.73c-0.17,0.44-0.36,0.6-0.48,0.79c-5.65,8.64-22.28,11.13-28.43,5.17
		c-1.19-1.15-1.41-2.06-2.84-2.71C675.5,274.53,670.88,277.19,667.29,279.92z"/>
	<path class="st2" d="M704.66,168.1c1.84,1.38,3.99,2.61,2.8,5.4c-0.24,0.58-2.09,1.1-2.73,0.76
		C703.14,173.41,703.17,170.05,704.66,168.1z"/>
	<path class="st2" d="M704.94,181.69c3.41,2.05,4.03,3.34,2.38,5.42c-0.3,0.38-1.89,0.38-1.95,0.22c-0.62-1.71-1.04-3.5-1.52-5.26
		C704.21,181.94,704.58,181.81,704.94,181.69z"/>
	<path class="st2" d="M704.98,149.99c-3.29-2.01-1.93-4.85-2.17-7.52C705.98,144.78,706.6,147,704.98,149.99z"/>
	<path class="st2" d="M702.59,240.79c0.53,1.05,1.48,2.09,1.49,3.14c0.01,1.05-0.93,2.1-1.45,3.15c-0.31-0.13-0.62-0.25-0.93-0.38
		c0-1.85,0-3.7,0-5.55C701.99,241.03,702.29,240.91,702.59,240.79z"/>
	<path class="st2" d="M707.18,193.01c0.3,1.76,0.59,3.52,0.97,5.77c-3.19-1.28-3.5-2.6-2.1-5.54
		C706.43,193.16,706.8,193.08,707.18,193.01z"/>
</g>
</svg>
